<svg xmlns="http://www.w3.org/2000/svg" width="1019.05" height="576.57" viewBox="0 0 1019.05 576.57">
  <g id="Laag_2" data-name="Laag 2">
    <g id="home">
      <g>
        <g>
          <path d="M871.53,235.94c4.22-11.81,23.94-23.17,38.72-22.95s23.48,10.12,18.8,21.72c-5.15,12.78-22.41,23-38.92,22.93C875.1,257.63,866.7,247.83,871.53,235.94Z" fill="#2e7c78"/>
          <path d="M930.45,114.74c-8.18,22.54-16.18,45.07-24.39,67.61-2.39,6.58-5.24,13.18-8,20.06,12.35,0,23.39-.08,34.35,0,3.52,0,4.82-1,5.93-3.52,10.91-24.41,22-48.81,33-73.22Q985.61,93.85,999.76,62h-50C943.4,79.56,936.83,97.15,930.45,114.74Z" fill="#2e7c78"/>
          <path d="M801.91,235.94c4.23-11.81,24-23.17,38.73-22.95s23.48,10.12,18.8,21.72c-5.16,12.78-22.41,23-38.92,22.93C805.49,257.63,797.09,247.83,801.91,235.94Z" fill="#74b3c1"/>
          <path d="M860.84,114.74c-8.18,22.54-16.18,45.07-24.39,67.61-2.4,6.58-5.24,13.18-8,20.06,12.35,0,23.39-.08,34.34,0,3.53,0,4.83-1,5.94-3.52,10.9-24.41,22-48.81,33-73.22Q916,93.85,930.15,62h-50C873.79,79.56,867.22,97.15,860.84,114.74Z" fill="#74b3c1"/>
        </g>
        <path d="M1016.8,90.18c-2.12-.85-4.67-.5-6.83-.07a44,44,0,0,0-8.9,3.08A96.88,96.88,0,0,0,985,102.33a6.47,6.47,0,0,0-6.08-4.39c-3.69-.22-7.32,1.28-10.6,2.78-9.24,4.24-17.72,10.37-25.79,16.49l-2.34,1.8a16.72,16.72,0,0,0,.49-7.84c-1.29-6-7.42-6.31-12.28-5.27a46.37,46.37,0,0,0-12.1,4.82A115.15,115.15,0,0,0,898.47,123a231.67,231.67,0,0,0-19.42,17.91c.24-1.35.45-2.7.61-4.06.5-4.32.59-9.5-2.34-13-4.56-5.5-13.66-2.43-19,0-7.75,3.55-14.68,9-21.1,14.54A213.06,213.06,0,0,0,816.59,159c-3.24,3.68-6.44,7.46-9.44,11.38.63-4.58,1.2-9.17,1.49-13.79a66.51,66.51,0,0,0-.48-14.45c-.62-3.85-1.93-7.81-4.66-10.69-3.9-4.14-9.61-3.37-14.47-1.55-8.39,3.13-15.76,8.75-22.52,14.51-11.89,10.14-22.35,21.94-32.16,34.07-15.65,19.35-29.73,40-43,61q-3.07,4.88-6.09,9.8c-1.71,2.79,1.58,5.45,4.2,4.2C692.41,252,1012.79,98.19,1017,96l.54-.26C1020.17,94.51,1019,91.05,1016.8,90.18Z" fill="#313c42"/>
        <path d="M379.72,89c-2.11-.85-4.66-.5-6.83-.07A44.34,44.34,0,0,0,364,92a97.19,97.19,0,0,0-16.09,9.14,6.47,6.47,0,0,0-6.08-4.39c-3.7-.22-7.32,1.28-10.61,2.78-9.24,4.24-17.71,10.37-25.78,16.49l-2.35,1.8a16.46,16.46,0,0,0,.49-7.84c-1.29-6-7.41-6.31-12.28-5.27a46.51,46.51,0,0,0-12.1,4.82,116.12,116.12,0,0,0-17.81,12.3A233.11,233.11,0,0,0,242,139.7c.24-1.35.44-2.7.6-4.06.5-4.32.6-9.5-2.33-13-4.57-5.5-13.67-2.43-19,0-7.76,3.55-14.68,9-21.11,14.54a213.06,213.06,0,0,0-20.63,20.57c-3.24,3.68-6.43,7.46-9.44,11.38.64-4.58,1.2-9.17,1.49-13.79a65.28,65.28,0,0,0-.48-14.45c-.61-3.85-1.92-7.8-4.65-10.69-3.91-4.14-9.61-3.37-14.48-1.55-8.39,3.13-15.76,8.75-22.51,14.51-11.89,10.14-22.36,21.94-32.16,34.07-15.66,19.35-29.73,40-43,61-2,3.25-4.07,6.52-6.09,9.8-1.71,2.79,1.59,5.45,4.2,4.2C55.34,250.8,375.71,97,379.91,94.81l.55-.26C383.1,93.28,381.92,89.82,379.72,89Z" fill="#313c42"/>
        <path d="M274.57,546.91c-4-4.63-8.29-9.3-13.85-12.63-3.67-2.19-9.8-4.6-14.3-2s-4.8,8.44-4.81,12.53c0,2,.09,4.08.22,6.11q-8.18-14.07-17.18-27.75c-8.58-13-17.61-26.14-28.73-37.65-3.66-3.8-7.72-7.74-12.75-10.27-3.55-1.79-8.76-3-12.2.2-3.69,3.38-3.74,8.84-3.65,13a114.54,114.54,0,0,0,2.72,20.3c1.89,9.23,4.27,18.35,6.77,27.43q-3-4.9-6-9.8c-6.64-10.79-13.37-21.54-20.34-32.16-6.6-10.05-13.38-20-20.69-29.66-5.74-7.57-11.73-15.18-18.91-21.78a43.8,43.8,0,0,0-8.2-6.17,14.75,14.75,0,0,0-7.76-2.17c-6.5.36-7.36,6.52-7.36,10.86,0,7.8,1.75,15.56,3.54,23.09,2.49,10.44,5.57,20.75,8.88,31q5.42,16.78,11.69,33.31c3.79,10,7.78,20,12.09,29.88.87,2,1.75,4,2.66,5.92a2.13,2.13,0,0,0,1.21,1,3.37,3.37,0,0,0,1.34.26H267.41c6.36,0,12.74.18,19.11,0h.27c2.13,0,4.25-2.31,2.93-4C284.69,559.5,279.85,553.06,274.57,546.91ZM101.34,442.43Z" fill="#5e0a72"/>
        <path d="M792.43,440l0,0h0Z" fill="#aa3995"/>
        <polygon points="792.66 440.21 792.65 440.2 792.65 440.21 792.66 440.21" fill="#aa3995"/>
        <path d="M792.2,439.78l-.09,0C792.17,439.78,792.2,439.79,792.2,439.78Z" fill="#aa3995"/>
        <path d="M792.45,440l.12.16v0l0,0Z" fill="#aa3995"/>
        <path d="M753.34,396.15a3,3,0,0,1-.17-.28l0,0C753.28,396.16,753.35,396.22,753.34,396.15Z" fill="#aa3995"/>
        <path d="M792.5,440h0l-.07-.05s0,0,0,0Z" fill="#aa3995"/>
        <path d="M792.43,440l-.07-.06,0,0a1,1,0,0,1-.23-.11S792.19,439.86,792.43,440Z" fill="#aa3995"/>
        <path d="M232.22,312.19c-.31-3.33.5-10.07-1.89-10.73-2.91-.8-8.51,1.49-11.07,2.68-3.49,1.63-6.81,3.58-10.2,5.4s-7,3.33-8.92,6.95c-1.73,3.32-1.48,7-1.26,10.64.14,2.27-.22,4.7,1.19,6.66,1.25,1.75,3.59,2.67,5.49,3.56,3.49,1.65,8.43,3.88,12.27,2.08a3,3,0,0,0,.53-.27c5.91-3.86,12.42-8.36,13.89-15.75C233,319.64,232.57,316,232.22,312.19Z" fill="#2e7c78"/>
        <path d="M638,455.63c-1.66-2.25-3.37-4.38-4.92-6.72a74.61,74.61,0,0,1-4.09-6.45c-2.22-4.26-3.13-9.3-3.81-14-1.42-9.85-1.25-19.91-3.59-29.63s-7.43-18.25-13.06-26.33c-1.4-2-2.83-4-4.27-6a2.52,2.52,0,0,0-2.77-1.12l-27.4,7.93-43.49,12.6-10,2.89a2.48,2.48,0,0,0-1.46,3.6,148.17,148.17,0,0,0,26.1,36.8A165.43,165.43,0,0,0,562,444.12c6,4.74,12.33,9.45,17.09,15.54,4.2,5.38,7.15,12.49,6.21,19.43-.49,3.61-2.26,6.74-4.13,9.81a61.87,61.87,0,0,1-5.38,7.48c-3.17,3.79-6.55,7.3-8.45,11.94a38,38,0,0,0-2.11,7.83c-.56,3.28-.24,6.79,2.07,9.37,2.57,2.86,6.46,3.48,10.25,3.31,2.5,2,5.74,1.95,8.86,1.51,4.46-.63,8.66-2.47,13.14-3,5.36-.58,10.66.77,16,.89s11.24-.77,13.9-5.9c1.77-3.42,1.8-7.38,1.48-11.11a97.52,97.52,0,0,1-.27-15.38,38.75,38.75,0,0,1,3.91-14.43c2.08-4.21,4.62-8.4,5.55-13.05C641,464.12,640.7,459.27,638,455.63ZM569.91,520Z" fill="#74b3c1"/>
        <g>
          <path d="M822,335.7a49.71,49.71,0,0,0-5.66,6.21c-7.77,10-13,22.1-16,34.35a92,92,0,0,0-1.93,10.79,34.39,34.39,0,0,0-.43,6.79c.48,5.42,5,9.07,9.73,10.88,2.56.91,5.7,1.67,8.36.72,3-1.08,3.81-3.64,3.92-6.57.23-6.64.57-13.92.83-20.56.57-14.35,4.08-24.77,8.45-35C838.78,321,824,333.88,822,335.7Z" fill="#2e7c78"/>
          <path d="M825.58,334.91h0l0,0h0S825.64,334.9,825.58,334.91Z" fill="#ff8b1f"/>
          <path d="M848.48,355.29a37.09,37.09,0,0,0-4.6,4.94c-6.59,8.32-11,18.47-13.48,28.75a75.45,75.45,0,0,0-1.6,8.84,29.94,29.94,0,0,0-.38,5.75c.38,4.51,4.1,7.52,8.05,9a11.37,11.37,0,0,0,6.61.69c2.36-.67,3.45-2.68,3.51-5,.62-21.86,4.09-36.83,7.94-46.21C861.28,345.62,850.16,353.81,848.48,355.29Zm-16,48.19c0-.15,0-.12,0,0Z" fill="#2e7c78"/>
        </g>
        <g>
          <path d="M403.7,170.21l-10.37-15.83-20.9-31.9c-1.42-2.16-2.81-4.56-5.4-5.44a6.84,6.84,0,0,0-6.57,1.65,18.7,18.7,0,0,0-4.28,6q-2.16,4.2-4.24,8.44-8.16,16.56-15.29,33.6c-4.63,11-9.36,22.23-10.91,34.17-1.35,10.44.43,21.05,6.24,29.94a43,43,0,0,0,9.89,10.65c3.85,2.95,8.54,6.12,13.59,5a45.28,45.28,0,0,0,10.6-4c4.58-2.31,8.57-5.44,12.75-8.38,7.46-5.24,15.19-10.11,23-14.87,1.25-.78,2.51-1.54,3.78-2.3a12.41,12.41,0,0,0,4.81-6.19,64,64,0,0,0,3-8.37c1.48-5.6,1.7-11.49-.49-16.93S406.93,175.15,403.7,170.21Z" fill="#2e7c78"/>
          <path d="M517.81,107.88a223.19,223.19,0,0,1-9.16-21.63c-2.57-7.18-4.84-14.45-7.07-21.74-1.15-3.73-2.29-7.47-3.45-11.19-1.1-3.53-2.12-6.8-5.25-9-5.52-4-12.33-.39-16.78,3.45a66.56,66.56,0,0,0-7,7.6c-2.38,2.81-4.68,5.68-6.93,8.59q-6.58,8.49-12.48,17.46A396.6,396.6,0,0,0,428,118.94c-3.38,6.58-6.84,13.2-9.82,20a30.26,30.26,0,0,0-1.65,19.87c1.35,5.33,4,10.19,7,14.78,1.74,2.72,3.57,5.39,5.38,8.06,1,1.48,2,3,3,4.43a15,15,0,0,0,3.54,4.25c2.27,1.64,5.09,1.78,7.79,1.94a59.71,59.71,0,0,0,9.36-.2c5.89-.6,11.46-2.35,17.19-3.69,10.9-2.56,21.93-4.59,32.95-6.56q3.12-.57,6.26-1.11a16.41,16.41,0,0,0,8.78-4.72,75.55,75.55,0,0,0,6.4-8.26c3.67-5.14,7-10.89,7.91-17.24,1.11-7.57-1.59-14.29-4.44-21.16C524.6,122.05,521.21,115,517.81,107.88Z" fill="#2e7c78"/>
          <path d="M668.3,108.58Q669.14,97,670,85.52q.42-5.77.85-11.53a50.36,50.36,0,0,0,.33-9.1c-.55-5-3.4-10.44-9.27-9.56a22.46,22.46,0,0,0-5,1.71l-5.39,2.2-10.22,4.21C627.56,69.14,613.9,75,600.5,81.4c-12.35,5.91-24.85,12.06-36.21,19.74-9.73,6.57-19,14.77-23.55,25.83-4.78,11.56-3.57,24.61-1.55,36.62.58,3.43,1.24,6.84,1.91,10.25.09,1.45,1.56,2.7,2.57,3.55,5,4.2,10.8,7.57,16.39,10.93a289,289,0,0,0,31,16.62,109.36,109.36,0,0,0,18.73,6.77,29.48,29.48,0,0,0,6.42,1,2,2,0,0,0,1.82-.31c9.24-6.18,18.7-12.15,27.47-19,4.69-3.65,9-7.74,11.95-13,4.45-8,6.62-17,7.47-26.07C666.34,139.17,667.18,123.85,668.3,108.58ZM545.85,173.67v0Z" fill="#2e7c78"/>
          <path d="M615,207.89Z" fill="#2e7c78"/>
          <path d="M753.05,219.82c2.9-4.77,7-10.17,5.76-16.06-1.11-5.15-6.51-6.12-11-6.26-5.77-.18-11.54-.5-17.31-.78a195.71,195.71,0,0,0-33.1.95c-3.5.43-7,.92-10.48,1.47s-7.48.74-10.67,2.44c-6,3.19-10,10.07-11.87,16.35a159.69,159.69,0,0,0-4.46,20,84.22,84.22,0,0,0-1.24,10.12c-.1,3.08,1,5.82,2.39,8.49a65.7,65.7,0,0,0,11,15c4,4.23,8.64,8.33,13.92,10.95a14.53,14.53,0,0,0,5.71,1.71,2.88,2.88,0,0,0,.6,0c5.73-.2,11.57-.81,16.79-3.33a39,39,0,0,0,11.66-9.41c3.59-4.09,6.24-8.85,9-13.48Q741.43,239,753.05,219.82Z" fill="#2e7c78"/>
          <path d="M764.12,317.72l8.24-8,8.75-8.46c3-2.91,6.39-5.69,8.84-9.11,1.49-2.25,2.64-5,1.55-7.7a7.65,7.65,0,0,0-5.19-4.11c-2.92-.88-6.14-.79-9.16-1.07-3.54-.33-7.07-.74-10.6-1.17-5.78-.7-11.61-1.6-17.44-1.63a23.28,23.28,0,0,0-6.28.63,18.41,18.41,0,0,0-6.38,3.41,42.13,42.13,0,0,0-6.16,6.15c-2.16,2.54-4.94,5.24-6.15,8.39-1,2.69-.5,5.19.4,7.81a74.37,74.37,0,0,0,3.86,8.94c1.29,2.6,2.66,5.16,4.18,7.64,1.4,2.29,2.92,4.14,5.51,5.12a19,19,0,0,0,4.43.8c1.64.21,3.27.47,4.92.63a15.8,15.8,0,0,0,8.63-1.33C759.2,323.13,761.64,320.12,764.12,317.72Z" fill="#2e7c78"/>
          <path d="M800.44,334.24c-1.19-1.47-3-1.86-4.74-2.14-2.42-.39-4.86-.71-7.3-1a70.3,70.3,0,0,0-14.13-.47c-4.51.47-8.72,2.1-11.77,5.57a24.56,24.56,0,0,0-3.52,5.34,16.25,16.25,0,0,0-2.12,6.34c-.09,2.31,1,4.18,2.14,6.09s2.33,3.79,3.58,5.62c2.57,3.75,5.44,8.64,10.57,8.47,2.93-.2,6.32.3,9.14-.68,3.46-1.2,6.26-4.37,8.24-7.33,2.73-4.09,4.75-8.8,7-13.16C799.38,343.45,803.54,338.08,800.44,334.24Z" fill="#2e7c78"/>
          <path d="M328.6,234.05c-2-3.4-5-6-8-8.31-3.26-2.49-6.64-4.82-10.07-7.05-7-4.55-14.26-8.65-21.64-12.53a14.57,14.57,0,0,0-5.17-2.06,4.57,4.57,0,0,0-4.9,2.89,19.52,19.52,0,0,0-.72,5.39q-.29,3.62-.49,7.23-.74,13.24-.39,26.51.17,6.63.61,13.24a52.09,52.09,0,0,0,1.62,11c2.11,7.22,7.22,12.08,14.05,14.92a57.9,57.9,0,0,0,10.16,3c3.44.74,6.64.84,9.24-1.93a31.06,31.06,0,0,0,3.84-5.58c2-3.46,3.91-7,5.86-10.51q2.64-4.72,5.51-9.31a44.5,44.5,0,0,0,2.55-4.24c0-.09.06-.18.09-.27a2.8,2.8,0,0,0,.15-.3,17.11,17.11,0,0,0,.76-5.75,50.54,50.54,0,0,0-.06-5.64A25,25,0,0,0,328.6,234.05Z" fill="#2e7c78"/>
        </g>
        <path d="M906.94,437.6c-5.47-2.4-10.93-5.28-16.59-7.19-6.05-2-12.32-3.54-18.45-5.3-16-4.62-32.21-9-48.18-13.87l-.34-.11-.67-.43c-1.48-1-3-1.87-4.53-2.79L800.55,397l-51.74-31.92-36.73-22.66c-5-3.08-10.56-5.27-15.86-7.76L593.51,286.3l-37.42-17.64c-2.06-1-4.25-2.55-6.51-1.82a64.49,64.49,0,0,0-6.24,2.79L453,310l-96,42.93c-3.18,1.42-6.44,2.72-9.56,4.27l-.14.06a13.76,13.76,0,0,0-1.67-.05l-32.69-2.07L194,347.59l-44.85-2.84c-3.39-.22-6.8-.58-10.2-.65-3.8-.08-6.19,5.59-8.13,8.31q-6.5,9.1-13,18.23a2.49,2.49,0,0,0,.88,3.35c11.71,8.38,21.31,18.77,30.9,29.41a176.12,176.12,0,0,0,29.16,26.48c11.57,8.17,24.23,15.22,37.78,19.47,13.38,4.19,26.86,4.32,40.52,1.46,14.36-3,28.06-8.48,42.39-11.59,14.91-3.25,29.59-2.39,44.39,1,14,3.18,27.56,8,41.55,11.19s28.26,4.44,42.64,2.54c29.3-3.88,56-17.48,83.84-26.44,13.77-4.43,28-6.79,41.88-10.86,13.39-3.92,25-10.12,35-19.86,8.91-8.64,17.77-21.23,30.42-24.43s25.11,4.55,35.09,11.2c22.19,14.78,44.27,29.73,67.76,42.39,25.58,13.79,53,26,81.93,30.56,28,4.4,57.1,2.45,84-6.75a166.06,166.06,0,0,0,19-7.9,2,2,0,0,0,1.24-2A1.93,1.93,0,0,0,906.94,437.6ZM347.28,357.27c-1.2.57-.61,0,0,0Z" fill="#fbfceb"/>
        <path d="M369.47,465.77l-30.69-23.22-4.29-3.24c-1.08-.82-2.71-.13-3.35.88-2.24,3.52-5.69,6.2-9.09,8.52a133.39,133.39,0,0,1-11.74,7c-8.05,4.39-17.58,9.11-21.54,17.89-2,4.42-2.65,9.24-4.43,13.72a14.4,14.4,0,0,1-3.51,5.35c-2,1.88-4.65,3-6.85,4.66a27.21,27.21,0,0,0-8.72,12,40.44,40.44,0,0,0-.9,4,26.78,26.78,0,0,0-.46,2.68,6.07,6.07,0,0,0,2.63,6.18,10.15,10.15,0,0,0,5.76,1.22,6.73,6.73,0,0,0,4.85,3.76c5.06,1.29,7.37.86,12.34-.44,2.91-.76,6-2.24,9-1.92,2.79.3,5.69,1.72,11.73,1.68-1.87,0,12.48.11,15.54-9.24,1.66-5.07,1-10.66.62-15.92-.12-1.9-.88-6.3.84-8.44,1.42-1.76,3.82-2.73,5.85-3.55,13-5.23,25.75-11,36.89-19.64C371.35,468.55,370.57,466.6,369.47,465.77Z" fill="#e73088"/>
        <path d="M930.91,420.16c-.87-6.62-10-5.84-15.9-6.15-8.7-.46-17.54.73-26.27.61a153.94,153.94,0,0,1-27-2.46c-17.66-3.36-32.9-11.41-46.64-22.87-27-22.49-50.53-49.51-72.05-77.17-20.71-26.61-38.4-55.31-58.73-82.17-18.44-24.37-40.16-45.7-68.77-57.57-16.89-7-34.87-12.08-52.53-16.74a160.51,160.51,0,0,0-44.09-5.43c-26.87.54-53.16,5.39-79.15,12-30.41,7.68-58.59,23.31-83.17,42.55-24.93,19.51-46.81,43.47-62.36,71.14-8.63,15.34-15.5,31.59-24.16,46.91-3.95,7-9.07,13.85-17.23,16-7.57,2-16,.36-23.18-2.24-5.83-2.1-11.34-5.18-16.91-7.87-6.55-3.17-14.83-5.39-20.21-10.37-4.6-4.26-7.28-10.2-11.65-14.71a48.57,48.57,0,0,0-18.37-11.72c-15.81-5.72-33-1.45-49-6-7.52-2.16-13.9-7.63-21.7-8.85a34.81,34.81,0,0,0-16.55,1.82C66,282,55.93,288.73,55.1,299.32c-.14,1.72,1.67,2.61,3.1,2.36,14.71-2.59,28.54,12.68,36.42,23.44-5,4.66-15.18,1-20.71-.83-7-2.36-14.33-5.83-20-10.68-1.23-1.05-3.82-.91-4.1,1.08-1.45,10.39.14,22.7,10.46,27.8,5.87,2.9,12.55,2.34,18.59,4.69,7.48,2.91,14.09,7.75,20.37,12.64,11.26,8.78,22.85,18.75,37.48,20.94,8.45,1.26,18,.12,25.43-4.47a6.51,6.51,0,0,1,8.16,1.18c18,19.21,39.13,38.24,66.34,40.28,16.45,1.24,32.1-4.8,46.88-11.28,15.62-6.85,31.15-13.52,47.89-17.14,16.25-3.5,33.59-4.38,49.56.9,14.75,4.87,26.36,17.32,41.91,20,16,2.72,30.31-6.73,42.79-15.5q23.82-16.72,47.6-33.47c27-19,59.09-46.54,94.58-40.4,16.16,2.8,29.94,12.54,42.16,22.95,12.44,10.6,24.33,21.77,37.14,31.94a421.87,421.87,0,0,0,84.63,52.7,204.59,204.59,0,0,0,100.26,18.81A218,218,0,0,0,897.64,444c7.79-1.46,15.29-3.36,22.05-7.67C924.39,433.28,931.72,426.38,930.91,420.16Z" fill="#79e873"/>
        <path d="M108.17,294a6.92,6.92,0,0,0-3.64-4,8.84,8.84,0,0,0-3-.95,6.7,6.7,0,0,0-3.12.38,2.69,2.69,0,0,0-2,2.69c.06,1.31,1.39,1.77,2.29,1.78,2.18,0,3.11,1.83,4,2.72a3.54,3.54,0,0,0,3,1.13A3,3,0,0,0,108.17,294Z" fill="#e73088"/>
        <path d="M253.29,319.18c-.31-3.33.5-10.07-1.89-10.73-2.92-.8-8.52,1.49-11.08,2.68-3.49,1.63-6.81,3.58-10.19,5.4s-7,3.33-8.93,7c-1.73,3.32-1.47,7-1.25,10.64.13,2.27-.22,4.7,1.18,6.66,1.26,1.75,3.59,2.67,5.49,3.56,3.49,1.65,8.43,3.88,12.27,2.08a2.65,2.65,0,0,0,.53-.27c5.91-3.86,12.42-8.36,13.9-15.75C254.07,326.63,253.63,323,253.29,319.18Z" fill="#e73088"/>
        <path d="M240.56,252.38a1.11,1.11,0,0,0-1.56-.55c-1.85.92-66.75,34.69-66.75,34.69l12.26-13.92c.75-.86,1.5-1.71,2.26-2.56a1.48,1.48,0,0,0,.57-1.16,1,1,0,0,0-.3-.82,1.12,1.12,0,0,0-.78-.26h-.06l-.22,0h0a1.63,1.63,0,0,0-.71.32l-27.09,17c-10.06,6.32,9.81-16-.26-9.68-4.76,3-39.46,34.63-44.23,37.63-1.35.84-.94,2.57.4,2.43,18.94-1.48,54,1.15,57.9,1.8,2.06.4,4.5,0,1.83-2.22a107.72,107.72,0,0,0-16.24-8.83c1-.27,66.71-15.06,67.41-15.29l.1,0a1.81,1.81,0,0,0,1.19-1.62c0-.71-.53-1-1.23-1-4,.05-38.58,1.2-38.73,1.2,3.46-2.41,51.83-34.27,53.5-35.43A1.64,1.64,0,0,0,240.56,252.38Z" fill="#e73088"/>
        <g>
          <path d="M886.1,382c3.66-7.6,10.28-30,7.89-34.2-4.09-7.22-11.12,10.55-21.32,24.29a106.28,106.28,0,0,1-36.09,30.32q-3.39,1.78-6.88,3.34c-2.57,1.17-5.55,2.9-6.09,5.92-.74,4.18,3.79,7.74,7.08,9.33,8.61,4.18,19.79,1.35,27.44-3.62C870.93,409,880.11,394.41,886.1,382Z" fill="#e73088"/>
          <path d="M927.12,370.09c-1.8-2.77-5.2-1.51-7.06.43a42.33,42.33,0,0,0-4.64,6.6c-2.08,3.19-4.16,6.37-6.48,9.39a92.64,92.64,0,0,1-35.56,28c-2.2,1-4.87,2.57-5.07,5.28-.24,3.21,3.05,5.83,5.58,7.16,7,3.66,16.34,1.38,22.62-2.62,10.66-6.79,18.71-17.78,24.52-28.82a70,70,0,0,0,6.07-15C927.88,377.53,929,372.93,927.12,370.09ZM924,372.14c.06.17.1.38,0,0Zm0,0c0-.05-.12-.12-.09-.13S923.94,372,924,372.11Z" fill="#e73088"/>
        </g>
        <path d="M585.05,499.52c-.92,4.82-5.57,8.33-8.28,12.25a20.7,20.7,0,0,0-3.15,17c1,3.8,7,2.18,5.91-1.63-1.3-4.77.36-9.55,3.32-13.34s7.14-7.53,8.11-12.64a3.16,3.16,0,0,0-2.14-3.77,3.1,3.1,0,0,0-3.77,2.14Z" fill="#5e0a72"/>
        <path d="M601.54,500c.1,4.25-3.38,7.82-5.12,11.57a21,21,0,0,0-.82,15.83,3.13,3.13,0,0,0,3.77,2.14,3.08,3.08,0,0,0,2.14-3.77,15.29,15.29,0,0,1,1.15-12.93c2.28-4.07,5.12-8,5-12.84-.09-3.94-6.23-4-6.13,0Z" fill="#5e0a72"/>
        <path d="M284.76,501.28c-2.4,3.45-6.78,5.75-9.6,9.13-3.14,3.77-5.08,8.42-4.56,13.39a3.16,3.16,0,0,0,3.07,3.07c1.52,0,3.24-1.41,3.06-3.07a14.08,14.08,0,0,1-.07-2.34,12.62,12.62,0,0,1,3.72-7.71,50.86,50.86,0,0,1,4.9-4.26,24.86,24.86,0,0,0,4.77-5.11,3.1,3.1,0,0,0-1.1-4.2,3.13,3.13,0,0,0-4.19,1.1Z" fill="#79e873"/>
        <path d="M303.33,501.7c-2.41,3.61-6.09,6.2-8.79,9.66a17.1,17.1,0,0,0-3.36,13.06,3.17,3.17,0,0,0,3.07,3.06c1.49,0,3.28-1.41,3.06-3.06a20.27,20.27,0,0,1-.19-3.21,13,13,0,0,1,.1-1.4,10.84,10.84,0,0,1,2.46-5.08c1.3-1.47,2.79-2.76,4.18-4.15a38.2,38.2,0,0,0,4.76-5.78,3.07,3.07,0,1,0-5.29-3.1Z" fill="#79e873"/>
        <path d="M384.2,178.15c-15.22-19.67-33.58-36.94-49.88-55.78-9-10.41-13.54-6.53-16.14,2.63-7.72,26.08-17.46,52.58-18.23,80-.15,19.3,15.8,43.19,36.64,41.62,8.47-3,10.3-7.29,21.4-15.42,19.44-14.23,27.51-18.62,27.85-28C386.16,194.72,388.77,185.75,384.2,178.15Z" fill="#e73088"/>
        <path d="M497.23,134.81c-2-14.43-11.8-23.9-20.17-36.18a259.6,259.6,0,0,1-23.93-38.08C443.12,41.3,441,39.73,435,41.5c-15.19,4.46-46.73,88.34-51.36,105.06-4.26,18.19,11.58,31.37,23.46,42.92,5.17,6.5,14.29,3.51,21.27,2.14,18.17-6.44,35.79-14.37,54.25-20.14C494.94,166,498.39,143.13,497.23,134.81Z" fill="#e73088"/>
        <path d="M638.61,114.84c-2.4-15.45-5.54-30.82-8.33-46.2Q628.15,56.9,626,45.15q-1-5.71-2.08-11.44c-.57-3.18-1.2-6.44-2-9.59-2.1-8.58-6-10.29-11.83-8.06-3.19,1.21-6,3.78-8.76,5.73q-4.49,3.15-8.94,6.31c-12.07,8.57-24,17.29-35.66,26.45-11.13,8.78-22.3,17.85-32.11,28.12-8.7,9.11-16.7,20-18.39,32.85s2.92,25.4,8.07,36.87c1.42,3.16,2.91,6.29,4.4,9.42.39,1.51,2.33,2.45,3.57,3.07,6.18,3.07,13,5.12,19.5,7.21a309.83,309.83,0,0,0,35.54,9.52,114.74,114.74,0,0,0,20.56,2.44,29.54,29.54,0,0,0,6.69-.44,2.13,2.13,0,0,0,1.42-.51,2.2,2.2,0,0,0,.49-.47c7.52-8,15.33-15.95,22.23-24.55,3.85-4.79,7.27-9.87,8.93-15.85C640.15,133.37,640,123.84,638.61,114.84Z" fill="#e73088"/>
        <path d="M731.34,155c-2.91-2.25-11.45-3.28-16.61-3.19-19-.24-37.88,0-56.79,2.5-29.2,3.8-26.15,20.85-27.91,39.18-3.37,17,12.47,29.94,23.6,40.43a34.18,34.18,0,0,0,37.4,7.66c10.82-4.47,13.67-15.39,17.84-25.92C725.11,174.54,739.34,161.14,731.34,155ZM669.4,238.35Z" fill="#e73088"/>
        <path d="M762.69,257.28a11.54,11.54,0,0,0-6.78-4.11c-7.27-1.76-14.43-3.85-21.63-5.85-5.5-1.52-11.39-3.34-17.16-3.23-5.35.11-9.89,3.21-13.39,7a90.65,90.65,0,0,0-6.32,8.16c-2.2,3.07-4.34,6.06-4,10,.24,2.84,1.69,5.35,3.05,7.79,1.64,2.91,3.46,5.73,5.37,8.48a158.78,158.78,0,0,0,11.49,14.87,12.73,12.73,0,0,0,8.38,4.42c1.73.19,3.51.05,5.24.07s3.36.06,5-.05c3.52-.23,6.86-1.21,9.43-3.75a27.65,27.65,0,0,0,3.56-5l3.94-6.21q3.76-6,7.54-11.91l3.93-6.21a36.39,36.39,0,0,0,3-5.4,2.73,2.73,0,0,0,.23-.52C764.58,263,764.56,259.81,762.69,257.28Z" fill="#e73088"/>
        <path d="M786.85,311.69a9.19,9.19,0,0,0-5-2.24q-4-.82-8.07-1.45a114.09,114.09,0,0,0-15.85-1.69c-4.9-.07-9.77.9-13.56,4.18a20.2,20.2,0,0,0-4.19,5.31c-1.14,2-2.39,4.26-2.53,6.6s1,4.5,2.21,6.56,2.44,4.08,3.75,6.06a71.45,71.45,0,0,0,4.68,6.41A9.5,9.5,0,0,0,755,345c3.34.25,7,1.3,10.31.63,3.78-.76,7.21-3.81,9.51-6.75a77.73,77.73,0,0,0,4.37-6.7l4.46-7.15C785.83,321.44,790.79,315.77,786.85,311.69Z" fill="#e73088"/>
        <path d="M311.81,269.57c1.61-15.5-11.58-25.8-24.75-33.09-6.76-2.77-34.47-25.79-34.17-12.3.29,13.09-.18,26.27.75,39.38.92,24.61,8.22,50.66,36.35,43.76,7.4-1.81,9.36-12.41,13.54-18.52C306.27,282.39,312.61,277.1,311.81,269.57Z" fill="#e73088"/>
        <path d="M606.2,256.76c.22-12.47-1.37-25.11-6.38-36.3a46.83,46.83,0,0,0-24.16-24.29,65.93,65.93,0,0,0-21.67-4.7,80,80,0,0,0-25.39,2.33,84.44,84.44,0,0,0-39.28,23.43,97.76,97.76,0,0,0-13.81,18.28c-1.83,3.14-3.43,6.37-4.94,9.65-2.06,4.47-4.39,8.82-6.35,13.33-16.07,37-20,77.68-18.3,116.55q.66,14.86,2.37,29.58a77.76,77.76,0,0,0,2.47,13.8c1.43,4.73,5.05,9.1,7.84,13.28,5.73,8.59,11.3,17.28,16.79,26s11.1,17.19,15.74,26.24a55,55,0,0,1,5.22,14.29c1,4.88,1.26,10.62-.77,15.28-1.61,3.68-4.72,5.93-7,9.09-2.73,3.75-3.12,8.44-5.62,12.29-2.68,4.12-7.75,5.88-11.05,9.47a26.87,26.87,0,0,0-5.9,10.84c-1.05,3.56-1.52,7.45,1.05,10.5,2.32,2.77,6,3.9,9.79,4.35a5.67,5.67,0,0,0,.66.63c2.55,2.09,5.9,2.76,9.09,3.14a59.23,59.23,0,0,0,11.76.09c3.9,2.53,9.5,2.45,14,1.94A50.07,50.07,0,0,0,526,572.5c2-.83,3.85-1.89,5.89-2.59a32,32,0,0,1,8-1.64c4.49-.34,8.45-.92,11-5,2.22-3.52,2.49-8.5,1.92-12.52-.91-6.46-3-12.67-2-19.24,1.66-10.46,7.3-19.92,8.62-30.41a24.72,24.72,0,0,0-2-13.2c-1.88-4.32-4.64-8.19-6.44-12.53-3.81-9.2-3-19.48-2.68-29.2A72.32,72.32,0,0,0,543,416.86a55.74,55.74,0,0,0-3.18-6.55A21.61,21.61,0,0,1,537,404c-.87-4.34.42-8.47,2.84-12.28,4-6.34,8.52-12.42,13-18.46,10.32-13.83,21.11-27.38,30.55-41.8a125.12,125.12,0,0,0,10.43-18.75A147,147,0,0,0,600,295.42,148.76,148.76,0,0,0,606.2,256.76Z" fill="#2e7c78"/>
        <g>
          <path d="M414.33,279.77a40,40,0,0,0-14.45-16.06A37,37,0,0,0,371.6,259c-23.11,5.7-40.16,23.61-52.36,43.19-6.16,9.88-10.54,20.61-14.37,31.58-4.14,11.88-7.76,24-9.59,36.51-1.76,12-1.9,24.43,1.3,36.25a66.63,66.63,0,0,0,17.73,29.74c8.3,8.3,18,15.06,27.66,21.66,1,.67,2.06,1.27,2.32,2.53a19.71,19.71,0,0,1,0,4q-.07,4.43-.11,8.85c0,6.32,0,12.65.31,19a169.42,169.42,0,0,0,1.72,18.14,18.9,18.9,0,0,1-.22,8.3,19.34,19.34,0,0,1-4.57,7.69,33.71,33.71,0,0,1-7.23,5.86c-1.19.75-2.4,1.48-3.6,2.23-.65.4-1.27.8-1.88,1.26.34-.25.13-.08-.21.12a39.81,39.81,0,0,0-7,5,25.44,25.44,0,0,0-6.65,11.75,10.44,10.44,0,0,0-.51,4.91A7.89,7.89,0,0,0,319,563v.2a1.82,1.82,0,0,1,0-.2h0c0,.11,0,.23,0,.39-.25,4.21,3.68,7,7.31,8,4.36,1.18,9.07,1,13.62.36,3,2.27,7.14,2.47,10.77,2.23a38.14,38.14,0,0,0,13-3.17c2.76-1.21,5.17-2.77,7.93-3.46,3.68-.92,8.29-.51,11.82-3.12,7.52-5.55,2.5-16.69,4.47-24.28.59-2.27,2.17-4.13,3.46-6a19.1,19.1,0,0,0,2.78-6.21c1.2-5,.93-10.16.7-15.27-.53-11.42.79-23.12,2.87-34.35.95-5.12,2.53-10.1,3.41-15.23a63.79,63.79,0,0,0,.68-16.67,40.85,40.85,0,0,0-2.44-11.47,38.32,38.32,0,0,0-7.21-11.4,78.22,78.22,0,0,0-7.61-7.28c9.3-13,17.77-26.61,24.14-41.3A154.63,154.63,0,0,0,421,324.81C422.11,309.75,421.27,293.48,414.33,279.77Z" fill="#74b3c1"/>
          <path d="M319.1,556.25s0,.06,0,.09a.26.26,0,0,0,0-.11Z" fill="#ff8b1f"/>
        </g>
        <path d="M334.42,543.42c-3.29,3.52-7.26,6.35-10.43,10s-5.77,8.26-5.46,13.27a3.14,3.14,0,0,0,3.07,3.07,3.09,3.09,0,0,0,3.06-3.07,9.3,9.3,0,0,1,1-4.86,19.22,19.22,0,0,1,3.42-4.87c3.05-3.27,6.66-5.94,9.71-9.21a3.07,3.07,0,0,0-4.34-4.33Z" fill="#5e0a72"/>
        <path d="M350.41,543c-5,9.16-13.41,18-10.79,29.29.88,3.84,6.8,2.22,5.91-1.63-1-4.29.67-8.67,2.72-12.39,2.29-4.18,5.18-8,7.45-12.18,1.88-3.47-3.41-6.57-5.29-3.09Z" fill="#5e0a72"/>
        <path d="M491.83,534.62c-1,5.73-6.87,10.18-10.53,14.35a31.12,31.12,0,0,0-5.89,9.07,21.72,21.72,0,0,0-1,12.38c.81,3.83,6.77,2.21,6-1.64a15.48,15.48,0,0,1,1.55-10.6,36.64,36.64,0,0,1,5.6-7.17c4.58-4.87,9.22-9.63,10.42-16.39.29-1.65-1.4-3.08-2.89-3.08a3.35,3.35,0,0,0-3.21,3.08Z" fill="#79e873"/>
        <path d="M505.07,540.5c-.17,2.59-1.49,4.91-2.81,7.08a72.33,72.33,0,0,0-4.54,7.8,31.19,31.19,0,0,0-2.2,19,3.09,3.09,0,0,0,3.78,2.14,3.13,3.13,0,0,0,2.14-3.77,24.36,24.36,0,0,1,2.74-16.53c2.84-5.1,6.62-9.61,7-15.67a3.09,3.09,0,0,0-3.06-3.06,3.12,3.12,0,0,0-3.07,3.06Z" fill="#79e873"/>
        <g>
          <path d="M629.65,227.66c-3.54,1.94-6.66,5.13-9.68,7.77-5.22,4.57-10.36,9.22-15.56,13.83-5.72,5.07-11.47,10.11-17.39,14.94-2.94,2.41-4.82,3.9-7.61,5.94a71.1,71.1,0,0,1-6.53,4.34c-.52.29-1,.58-1.58.84l-.39.18A148.29,148.29,0,0,1,583.7,254c2.47-3.6,5.1-7.12,7.47-10.79a18.17,18.17,0,0,0,2.54-5.31c.59-2.38-.17-5.09-2.8-5.79-3-.8-6.49,1.48-8.93,3-6.1,3.76-12,7.91-17.69,12.2-20.45,15.34-39.23,32.73-57.71,50.36,7.3-10.65,14.62-21.29,22.13-31.79,6.21-8.67,12.55-17.25,19.15-25.63,2-2.49,9.66-10.28,3.77-12.69-3.16-1.3-7.2,2.09-9.61,3.68-3.86,2.54-7.64,5.21-11.34,8-7.7,5.74-15.09,11.87-22.22,18.29A519.19,519.19,0,0,0,468,299c-12.67,14.29-24.85,29-37.13,43.63L426.32,348a3.15,3.15,0,0,0,0,4.34,3.08,3.08,0,0,0,4.33,0c11.78-14,23.4-28.08,35.39-41.87,12.24-14.09,24.86-27.88,38.34-40.78a298.7,298.7,0,0,1,36.35-30.17q-7.37,9.5-14.4,19.26c-12.12,16.74-23.66,33.89-35.41,50.89-1.43,2.08-2.87,4.15-4.32,6.23-1.19,1.71.09,3.93,1.83,4.5,2.1.69,4.12-1.26,5.55-2.47,2.17-1.82,4.22-3.79,6.27-5.73,7.06-6.67,14-13.44,21.12-20.08,18.81-17.62,38.23-35.1,59.86-49.23q1.9-1.25,3.84-2.45l1-.59c-.14.22-.26.44-.4.66-2.23,3.37-4.63,6.64-6.92,10a155.55,155.55,0,0,0-12.54,20.68c-1.1,2.28-2.41,4.55-1.91,7.13a4.89,4.89,0,0,0,1.42,2.67c3.88,3.6,10.36-1.07,13.69-3.31a209.75,209.75,0,0,0,18.67-14.7c6.65-5.69,13.17-11.54,19.7-17.36,2.67-2.38,5.34-4.76,8-7.1,1.06-.92,2.13-1.84,3.21-2.74l1.37-1.11.46-.37.19-.14a15.15,15.15,0,0,1,1.72-1.15C636.21,231.06,633.12,225.77,629.65,227.66Zm-79.3,5.76,0,0h0C550.47,233.24,551.09,233.5,550.35,233.42Zm-2.63-3.19c.07-.14.15-.27,0,0Zm-59.35,84.31,0,0C488.1,314.74,487.63,314.79,488.37,314.54Zm101.29-76.41Zm-1.86-1.89v0C587.77,236.15,587.79,236.14,587.8,236.24Zm-17.51,41.12s0-.13,0-.28l0,.06C570.3,277.26,570.32,277.37,570.29,277.36Z" fill="#e73088"/>
          <path d="M550.35,233.42Z" fill="#ffd7ba"/>
        </g>
        <path d="M136.63,343a48.8,48.8,0,0,1-17-7.23,98.69,98.69,0,0,1-14-12c-4.45-4.41-8.79-9-13.63-13A54.7,54.7,0,0,0,76,301.38a37.07,37.07,0,0,0-21-1.66c-3.09.71-1.78,5.38,1.3,4.73l.53-.09h.08l1-.09a32.16,32.16,0,0,1,5.55.11,32.91,32.91,0,0,1,3.49.6,38.8,38.8,0,0,1,4.24,1.23,38.06,38.06,0,0,1,9.1,4.84c4.87,3.46,9.53,8.76,13.25,13.5a.68.68,0,0,1-.44,1.08,36.86,36.86,0,0,1-11.48-.43c-6.71-1.29-11.76-1.15-17-3.63-3.1-1.46-5.85-3.11-7.73-5.58a21.31,21.31,0,0,1-1.77-2.87l-.21-.46-.12-.32A2.46,2.46,0,0,0,50,313.64c2.81,11.76,18,16.23,27.09,19.15,3.27,1,6.59,1.91,9.93,2.71,7.31,1.75,14.41,4.22,21.6,6.4,8.91,2.69,18,5.1,27.28,5.89A2.44,2.44,0,0,0,136.63,343Zm-31-11.25h0C105.79,331.77,105.93,331.8,105.64,331.73Z" fill="#e73088"/>
        <path d="M90.31,285.87c-.87-4-2.49-8.37-7-9.17-4.05-.72-8.56.66-12.26,2.23a34.66,34.66,0,0,0-18.35,18,2.86,2.86,0,0,0-.24.56c-.11.38-.23.76-.34,1.14s-.17.52-.23.78c0-.14,0-.21-.13.39-.47,1.72-.05,3.93,1.58,4.88s3.64.26,5.37.17a31.91,31.91,0,0,1,6.1.21,30.86,30.86,0,0,1,11.74,4.08c1.87,1.14,3.54,2.78,5.68,3.41s3.35,1.59,5.67-1.6a14.76,14.76,0,0,0,2.19-5.48,51.43,51.43,0,0,0,1-6.41A43.42,43.42,0,0,0,90.31,285.87Z" fill="#2e7c78"/>
        <path d="M74.55,323.1a64.89,64.89,0,0,1-12-3.78c-3.28-1.39-6.81-3.76-8-7.24l-.12-.37c-1.52-4.17-3.46-2.53-4.49-.59-3.72,7-2.7,16.32.83,23.26,3.41,6.68,10.8,12,18.5,10.79,6-.94,9.76-6,11.21-11.58a38,38,0,0,0,1-6.19C81.63,325.65,81.48,324.46,74.55,323.1Z" fill="#2e7c78"/>
        <path d="M145,168.26C126.53,175.87,108,183.39,89.48,191q-32.41,13.35-64.61,27.2l-9.68,4.17c-3,1.29-6,2.45-8.63,4.4A15.57,15.57,0,0,0,0,238.35a10.82,10.82,0,0,0,5,10c4.54,2.63,9.89.85,14.16-1.43C30.89,240.63,145.4,175.14,148,173.62c5.59-3.26,6.75-4.77,6.32-6.35C154,166.21,152.7,165,145,168.26Z" fill="#74b3c1"/>
        <path d="M392,1.81c-15.86,6.52-31.75,13-47.6,19.49Q316.6,32.74,289,44.6l-8.29,3.57a35.74,35.74,0,0,0-7.39,3.77,13.36,13.36,0,0,0-5.61,9.91A9.28,9.28,0,0,0,272,70.39c3.88,2.25,8.47.73,12.12-1.22C294.16,63.8,392.26,7.7,394.48,6.41c4.79-2.8,5.79-4.09,5.42-5.45C399.65.05,398.5-1,392,1.81Z" fill="#2e7c78"/>
        <path d="M251,14.34C236.75,20.21,222.45,26,208.19,31.88q-25,10.31-49.81,21l-7.46,3.22a32,32,0,0,0-6.65,3.39,12,12,0,0,0-5.05,8.92,8.35,8.35,0,0,0,3.84,7.68c3.49,2,7.62.66,10.91-1.1C163,70.14,251.3,19.64,253.3,18.48c4.32-2.52,5.21-3.68,4.88-4.9C258,12.76,256.93,11.83,251,14.34Z" fill="#5e0a72"/>
        <path d="M888.66,30.41c-12.11,4.78-91.65,38.31-100.87,42,5.31-4.74,11.55-12.13,16.59-17.26,7.08-7.19-.44-3.9-2.24-2.9-17,9.51-33,20.72-49.44,31.23-4,2.56-8,5.08-12,7.6,3.88-5.33,7.38-9.42,11.25-14.8,4.63-6.46-1-3.54-2.53-2.53C738.12,81,727.12,88.62,717.13,97.58c.91-2.88,2-5.68,3.18-8.52,2.78-6.94-1.23-3.65-2.91-2.24a61.58,61.58,0,0,0-14.5,17.12,22.28,22.28,0,0,0-2,18.45,13.17,13.17,0,0,0,1.35,3.22,11.17,11.17,0,0,0,3.77,3.78c5.78,3.46,12.73.7,18.1-2.17q22.64-12.07,45.25-24.15Q788.71,92.72,808,82.27q18-9.84,36-19.87,18.79-10.55,37.42-21.35c3.27-1.9,6.57-3.76,9.81-5.71,3.85-2.32,8.14-5.25,8-6.55C899,27.69,895.31,27.77,888.66,30.41Z" fill="#e73088"/>
        <path d="M1008,231.49c-21,8.64-42.1,17.19-63.13,25.85q-36.81,15.17-73.4,30.89l-11,4.74c-3.37,1.46-6.83,2.79-9.8,5a17.68,17.68,0,0,0-7.44,13.15c-.25,4.41,1.74,9.05,5.65,11.32,5.15,3,11.24,1,16.09-1.62,13.33-7.11,143.43-81.52,146.38-83.24,6.36-3.71,7.67-5.42,7.18-7.22C1018.25,229.15,1016.74,227.79,1008,231.49Z" fill="#e73088"/>
        <path d="M669.5,29.91a1.58,1.58,0,0,1,1.78-1.2,43.31,43.31,0,0,1,29.35,16.95c7.83-4.66,17.83-5.37,26.71-5,.86,0,1.71.08,2.56.17,1.86.19,1.94,3.2,0,3.34a50.9,50.9,0,0,0-30.18,12.6,1.71,1.71,0,0,1-2.58-.68A50.7,50.7,0,0,0,687.44,42a47.08,47.08,0,0,0-16.9-10,1.62,1.62,0,0,1-.42-.19A1.49,1.49,0,0,1,669.5,29.91Z" fill="#313c42"/>
        <path d="M724.28,18.68a9.2,9.2,0,0,0-4.92.5,13.38,13.38,0,0,0-5.81,3.32c-.89.95-2.9.78-3-.8-.26-4.15-3-8.29-6.22-10.81l-.05,0h0a1.42,1.42,0,0,1-.25-.24l-.11-.15,0-.07a1.61,1.61,0,0,1,0-1.68,1.59,1.59,0,0,1,1.44-.88l.17,0h.1a1.66,1.66,0,0,1,.47.17,16.85,16.85,0,0,1,8.13,8,16.83,16.83,0,0,1,10.51-.68,1.74,1.74,0,0,1,1.45,1.88A1.69,1.69,0,0,1,724.28,18.68Z" fill="#313c42"/>
        <path d="M737.41,36.16a1.56,1.56,0,0,1,1.3-.39c4,.53,8.22,1.73,11.36,4.47a16.25,16.25,0,0,1,4,5.48c4.57-2,10.19-2.15,15-1.51,1.82.24,2,3.24,0,3.34a38.93,38.93,0,0,0-8.6,1.06,15.67,15.67,0,0,0-7.57,4.81,1.7,1.7,0,0,1-3-.8c-.43-3.33-1.08-7.42-3.44-9.77-2.13-2.13-5.36-3-8.28-3.75a2.22,2.22,0,0,1-.39-.11,1.69,1.69,0,0,1-.88-2.2A1.59,1.59,0,0,1,737.41,36.16Z" fill="#313c42"/>
        <path d="M835.14,505.9c-6.74-.49-13.64,1.13-20,3.52A101.7,101.7,0,0,0,825,496c2.35-3.93,5.14-9.35,2.93-13.94-1.75-3.63-6.14-4.84-9.85-4.94A35.58,35.58,0,0,0,805,479.76a95,95,0,0,0-15.56,7.7,184.55,184.55,0,0,0-15.72,10.65c5.62-7.58,11-15.35,15.85-23.4,3.48-5.76,7-11.91,8.79-18.46,1.13-4.28,1.33-9.92-3.22-12.31s-10.59-1.25-15.15,0a73.42,73.42,0,0,0-17.51,7.67C749.1,459.2,737,469,725.34,478.94c-4.2,3.59-8.32,7.26-12.41,11,6.08-8.52,12.22-17,18.11-25.65,6.09-8.93,12.05-18,17.45-27.36,4.09-7.09,8.24-14.57,10.44-22.52,1.38-5,2-11.87-3.36-14.75s-12.33-.2-17.3,2.51c-8.38,4.59-15.83,11-22.78,17.51a278,278,0,0,0-25.83,27.87c-17.65,21.67-33.51,45.79-42.95,72.23-1.05,3-2,6-2.86,9a3.1,3.1,0,0,0,3,3.88H832.59c.85,0,1.71,0,2.56,0a3.55,3.55,0,0,0,1.94-.65,32.38,32.38,0,0,0,5.31-4.89c2.7-3,5.31-6.64,5.46-10.81C848.1,509.19,841,506.32,835.14,505.9Zm4.1,7Zm-16.68-28,0,.08,0,0A.36.36,0,0,0,822.56,484.91ZM753.1,405.28h0Zm39.71,44.84a.75.75,0,0,1-.07-.12Z" fill="#5e0a72"/>
        <path d="M649,573a355.85,355.85,0,0,1,38.55-32.6c13.81-10.27,28.19-20,43.44-28,3.14-1.65,6.33-3.22,9.58-4.65,1.3-.58,2.26-1,3.87-1.59,1.37-.52,2.75-1,4.15-1.45,1.21-.38,2.44-.72,3.68-1,.55-.12,1.1-.24,1.66-.34l.85-.13c.44-.08-.59,0,.2,0a23.08,23.08,0,0,1,3-.1c.19,0,.39,0,.59,0,.66,0-.6-.19.07,0,.19.06.39.08.59.13s.93.32.39.11.44.3.66.4c-.41-.19-.46-.39-.1,0s.12.27,0-.11a2.18,2.18,0,0,0,.29.45,1.42,1.42,0,0,1,.12.25c0-.07-.19-.74-.15-.35a7.5,7.5,0,0,0,.29,1.13c-.13-.45,0-.61,0-.12,0,.22,0,.44,0,.66l0,.61c0,.14-.12,1,0,.5s-.07.34-.09.45l-.15.69c-.13.56-.29,1.12-.46,1.67s-.4,1.18-.62,1.77c-.1.27-.21.54-.32.8,0,.09-.24.58-.09.22s-.15.35-.15.35c-.59,1.31-1.22,2.59-1.89,3.86-1.56,2.92-3.29,5.74-5.12,8.5A160.67,160.67,0,0,1,725.48,556c-.89.8-1.79,1.58-2.72,2.32-2.34,1.87.19,6.26,3,5.13,14.71-6,29.92-11.65,45.64-14.29a64.71,64.71,0,0,1,7.22-.85,49.07,49.07,0,0,1,6.53,0l1.33.13c.6.06-.56-.09,0,0l.71.11a23.17,23.17,0,0,1,2.47.55c.35.1.69.21,1,.33l.49.17c.13,0,.85.35.35.13s.42.21.6.3.61.32.9.5a3.35,3.35,0,0,1,1.67,2.63,10.81,10.81,0,0,1-.79,4.63,29.26,29.26,0,0,1-6.67,10.12c-2.07,2.17,0,6,3,5.13,17.18-5,35.13-8.79,52.83-4.46A97.41,97.41,0,0,1,856.51,573c1.53.62,3.37-.68,3.77-2.14a3.15,3.15,0,0,0-2.14-3.78,87.52,87.52,0,0,0-24.63-6.33,93.78,93.78,0,0,0-26.68,1.78c-6.15,1.2-12.21,2.8-18.21,4.55l3,5.13a37.67,37.67,0,0,0,7.22-10.34c1.55-3.44,2.78-7.51,1.6-11.26-1.53-4.88-6.54-7.07-11.19-7.94a47.21,47.21,0,0,0-14.24-.22,127.69,127.69,0,0,0-20.19,4.2,302.67,302.67,0,0,0-30.69,10.82l3,5.13a110,110,0,0,0,13-12.8,200.84,200.84,0,0,0,14.37-18A92.49,92.49,0,0,0,764.74,514c1.65-4,3.29-9.44.7-13.42-2.81-4.31-8.63-3.95-13.06-3.18-6,1-11.79,3.52-17.28,6.07-15.61,7.25-30.18,16.87-44.14,26.87a399.05,399.05,0,0,0-42.23,34.36q-2.07,2-4.1,4c-2.8,2.78,1.53,7.12,4.34,4.33Z" fill="#74b3c1"/>
      </g>
    </g>
  </g>
</svg>
