<svg xmlns="http://www.w3.org/2000/svg" width="715.96" height="327.07" viewBox="0 0 715.96 327.07">
  <g id="Laag_2" data-name="Laag 2">
    <g id="ontwerp">
      <g>
        <g>
          <g>
            <path d="M330.79,102.5l6.8,64.73A44.72,44.72,0,0,0,365.14,204L472,247.63a44.65,44.65,0,0,0,20.15,3.21l100.07-7.23A44.75,44.75,0,0,0,621,230.24l71-72.76a44.7,44.7,0,0,0,9.9-46.8L686.38,69a44.76,44.76,0,0,0-26.45-26.38l-48.79-18a106.49,106.49,0,0,0-36.8-6.56H469a106.43,106.43,0,0,0-42.25,8.75L357.51,56.79A44.72,44.72,0,0,0,330.79,102.5Z" fill="#f9faeb"/>
            <g>
              <path d="M682.94,104.93v2a30.34,30.34,0,0,1-6,12.39c-6,7.3-13.93,10.17-23.19,9.89-8.39-.26-16.37-2.5-24.32-4.88q-12.78-3.82-25.59-7.54c-1.22-.36-2.48-.54-3.76-.8-1.19,2.65-2.25,5.31-3.55,7.85-2.75,5.44-6.4,10.12-12,12.84a21.28,21.28,0,0,1-14,1.92c-4.93-1.08-8.63-3.79-10.16-8.75a13.31,13.31,0,0,1,2.94-13.45c4-4.45,9.19-6.68,15-7.45,3.84-.51,7.71-.61,11.57-1a2.08,2.08,0,0,0,1.51-1c1.1-3.39,2.07-6.84,3.22-10.71a24.17,24.17,0,0,1-3.32,2.27,35.26,35.26,0,0,1-7,2.74c-4.93,1-8.36-1.86-8.85-6.89a20.43,20.43,0,0,1,3.77-14.12c5.56-8,13-12.42,23-11.26,2.35.26,4.62,1.64,6.81,2.75a2.62,2.62,0,0,1,1.21,3.46c-3.9,9.74-4.56,20.23-7.19,30.28-.25,1-.48,1.91-.76,3,2.6.37,5.1.65,7.59,1.08,9.22,1.56,18.4,3.3,27.63,4.75,9.49,1.5,19,2.11,28.51-.18a22.12,22.12,0,0,0,13.66-9C680.82,103.27,681.65,103.27,682.94,104.93ZM597.53,76.67a8.08,8.08,0,0,0,0-1.66,20.63,20.63,0,0,0-2.8,1.67,22.21,22.21,0,0,0-6.66,11.77,7.45,7.45,0,0,0-.17,1.81c0,1.4.8,1.82,2,1a8.81,8.81,0,0,0,2-2A37.5,37.5,0,0,0,597.53,76.67ZM581,124.78c3.16-2.66,5.18-6.12,7-9.85-1.73,0-3.28-.09-4.8,0a18.38,18.38,0,0,0-9.56,2.9,6.92,6.92,0,0,0-3.07,4.16,4.09,4.09,0,0,0,3.88,5.19A9.09,9.09,0,0,0,581,124.78Z" fill="#5e0a72"/>
              <path d="M650.33,150.23a4.79,4.79,0,0,1-.41,9.56,4.79,4.79,0,0,1,.41-9.56Z" fill="#5e0a72"/>
              <path d="M639.14,153.82a3.16,3.16,0,0,1,0-6.32,3,3,0,0,1,3.1,3.13A3,3,0,0,1,639.14,153.82Z" fill="#5e0a72"/>
              <path d="M634.79,165.57a4,4,0,1,1,4.12-3.85A3.89,3.89,0,0,1,634.79,165.57Z" fill="#5e0a72"/>
              <path d="M599.65,174.25a2.75,2.75,0,0,0,2-.65,6,6,0,0,0,1.73-2c1.72-3.38,3.4-6.78,4.91-10.25a9.14,9.14,0,0,0,.2-3.08,11.83,11.83,0,0,0-3.06,1.35c-3.86,3.34-5.59,7.8-6.43,12.94C599.17,173.08,599.29,174.18,599.65,174.25Zm-3.83,9.3c-5.08.8-8.81-2.26-9.13-7.37-.39-6.12,1.74-11.4,5.41-16.15a24.3,24.3,0,0,1,9-7.35,13.15,13.15,0,0,1,10-.65c1.62-6.52,3.89-12.77,4.14-19.48.06-1.49,1-2,2.16-2.3,2.9-.68,8,1.62,9.28,4.32a5.26,5.26,0,0,1,.23,3.19c-1.77,7-3.69,13.88-5.5,20.84-1.12,4.31-2.39,8.63-3.1,13-.35,2.11.32,4.45.76,6.64.32,1.56,0,2.32-1.62,2.54a12.13,12.13,0,0,1-8.63-2.2c-.5-.33-1-.69-1.28-.91-2.58,1.59-5,3.21-7.47,4.55A13.89,13.89,0,0,1,595.82,183.55Z" fill="#5e0a72"/>
              <path d="M548.37,208.25c7.68-.47,14.5-2.85,19.91-8.56.72-.77,1.55-1.62,2.71-.84s.76,2,.29,3a35.1,35.1,0,0,1-13,14.31c-7.91,5.11-16.39,6.14-25.42,3.57s-17.46-6.31-26.06-9.79c-5.95-2.41-12-4.46-18-6.7a2.13,2.13,0,0,0-2.49.51,20.72,20.72,0,0,1-13.19,5.51,8.75,8.75,0,0,1-6.34-2,4.89,4.89,0,0,1-.86-7.09c2-2.65,4.78-3.66,7.92-4a27.8,27.8,0,0,1,4.46-.25,2.31,2.31,0,0,0,2.65-1.63c1.31-3.22,2.61-6.45,4-9.63a2.15,2.15,0,0,0-.64-2.9,76.33,76.33,0,0,0-8.6-6.12c-13.34-7.33-27.57-9-42.46-6.26-8.36,1.55-16.75,3-25.17,4.28-8.92,1.32-17.9,1.64-26.64-1.09-10.78-3.36-19.56-9.43-25.27-19.43a29.37,29.37,0,0,1-3.55-10.81,16.2,16.2,0,0,0-.36-1.6v-3.65c.56-2.95,1.13-5.88,1.68-8.83h.5c.38,1.45.74,2.91,1.14,4.36,1.84,6.69,4.68,12.88,9.42,18.05,5.91,6.43,13.45,9.73,21.86,11.33s17.17,1.52,25.8,1.18c10.33-.43,20.66-1.14,31-1.3s20.69.71,30.36,5a50.8,50.8,0,0,1,7,3.85c2.18,1.45,4.17,3.22,6.4,5,.48-1.87,1-3.8,1.49-5.74,1-3.68,1.79-7.42,2.95-11,1.62-5,4.32-9.42,8.91-12.24a19.3,19.3,0,0,1,17.22-1.7c4.92,1.73,8.42,7.76,3.39,13.55a17.22,17.22,0,0,1-7.83,5.65A3,3,0,0,1,511,164a2.9,2.9,0,0,1-.29-2.52,15.18,15.18,0,0,0,1-7.64c-.14-1-.72-2.45-1.41-2.66a4.19,4.19,0,0,0-3.32.73,7.79,7.79,0,0,0-2.26,3.59c-1.82,6.19-3.57,12.42-5.13,18.68-1.7,6.77-3.21,13.57-6.24,19.91-.44.92-.92,1.85-1.46,2.92,2.82.63,5.61,1.16,8.36,1.89,7.79,2.1,15.55,4.36,23.34,6.43C531.71,207.44,539.92,208.77,548.37,208.25Z" fill="#5e0a72"/>
              <path d="M540.52,101.09a42.36,42.36,0,0,1-7.56-.42,3.12,3.12,0,0,1-2.8-3.86c.45-3.5,1.24-7,2-10.41.77-3.79,1.62-7.55,2.42-11.34a4.35,4.35,0,0,0,.05-.81c0-3,.58-3.64,3.6-3.77a7.73,7.73,0,0,1,7.76,4.68c3-3.24,6.13-5.76,10.25-6.81a18.53,18.53,0,0,1,2.43-.45c4.29-.47,7.29,2.28,6.89,6.57a41.6,41.6,0,0,1-1.46,6.61c-.78,3-1.66,6-2.41,9a11.74,11.74,0,0,0-.25,3c.08,6,4.73,9,10.28,6.65.34-.15.69-.47,1-.48.76,0,1.74-.11,2.21.3a2.07,2.07,0,0,1,.08,2.05,22.45,22.45,0,0,1-4.18,4.61A17,17,0,0,1,557,109.34c-6-1.22-9.51-5.65-9.57-11.8,0-4.62,1.26-9,2.84-13.22.7-1.91,1.35-3.85,1.93-5.81.13-.43-.18-1-.29-1.5-.44.13-1.05.1-1.31.38a23.51,23.51,0,0,0-3.49,4.14,43.33,43.33,0,0,0-4.87,14.21,15.67,15.67,0,0,0,0,3.14C542.3,100.15,541.69,101.08,540.52,101.09Z" fill="#5e0a72"/>
              <path d="M559.4,186.37c-4.58.5-7.94-2.35-8-6.93A24.1,24.1,0,0,1,552,174c.86-3.7,2-7.37,2.82-11.08a19.39,19.39,0,0,0,.35-4.44c0-1.78.48-2.5,2.24-2.83,6.22-1.18,11.15,4.16,9.54,10.4-.63,2.52-1.52,5-2.07,7.51a9.52,9.52,0,0,0,.4,3.06c.95-.56,2.2-.89,2.82-1.69,2.78-3.61,3.91-7.9,4.52-12.31a50.18,50.18,0,0,0,.28-7,2,2,0,0,1,2-2.29,12.25,12.25,0,0,1,8.65,2.21c1.92,1.37,2.47,2.57,1.85,4.84-.82,3-1.88,6-2.66,9.06-1,3.89-1.59,7.8.07,11.72.54,1.27-.21,2.13-1.75,2.31a12.73,12.73,0,0,1-10-3.33C567.64,183.36,564,185.86,559.4,186.37Z" fill="#5e0a72"/>
              <path d="M442,64.74c6.69,3.65,8.41,11.07,4.28,17.49-3.52,5.49-8.78,8.75-14.63,11.23l-1.66.68c2.57,6.29,5.09,12.5,7.65,18.71,1.08,2.6,2.09,5.24,3.32,7.78a53.72,53.72,0,0,0,3.51,6c5,7.59,12.29,10.3,21.07,9.35,10.19-1.11,19.67-4.54,28.77-9.13s17.89-9.25,27-13.4a49.49,49.49,0,0,1,23.18-4.85c4.47.24,8.41,1.68,10.43,6.11a12.71,12.71,0,0,1,.1,9.89c-2.64,7.22-7.68,12.42-14.28,16.19a4,4,0,0,1-1.86.64c-.81,0-1.94-.18-2.3-.71a2.7,2.7,0,0,1,.3-2.32c1-1.54,2.34-2.82,3.31-4.34,2-3.18,3.5-6.53,2.74-10.47-.71-3.73-2.52-5.52-6.34-5.86a35,35,0,0,0-17.92,3.3c-8.59,4-17,8.53-25.39,13-9.24,4.91-18.49,9.78-28.79,12.1-5.11,1.15-10.28,1.66-15.46.43-7.82-1.85-12.74-7.19-16.43-13.93-3.76-6.9-5.79-14.44-8-21.91-1.27-4.34-2.68-8.66-4-13a7.35,7.35,0,0,0-.43-1l-.44,0c-.77,3.92-1.66,7.83-2.32,11.77-.46,2.73-.64,5.5-.91,8.25-.25,2.46-.79,3.08-3.28,3.17a35.69,35.69,0,0,1-6.12-.21c-3.5-.54-4.51-1.9-3.9-5.37,1.19-6.69,2.4-13.39,3.89-20,.08-.36.17-.7.25-1.06h0c1.21-5.29,2.69-10.53,4.26-15.73A67.73,67.73,0,0,1,414.84,70c-4.28,1.59-8.5,3.65-11.43,7.65a11,11,0,0,0,.15,13.14,2.79,2.79,0,0,1,.62,1.73.21.21,0,0,1,0,.11,2.57,2.57,0,0,1-1.89,1,13.94,13.94,0,0,1-11.58-5.07c-3.11-3.78-2.81-10.14,1-14.36a27,27,0,0,1,7.45-6,59.47,59.47,0,0,1,35.07-6.09A22.74,22.74,0,0,1,442,64.74ZM421.45,89.67c7.59.36,15.07-8.55,13.9-16.09a6.43,6.43,0,0,0-4.73-5.41c-2.12-.7-2.8-.43-3.46,1.72-1.66,5.31-3.21,10.66-4.77,16C422,87.1,421.78,88.31,421.45,89.67Z" fill="#5e0a72"/>
              <path d="M529.8,175.15a5.71,5.71,0,0,1-1.8-.52,11.44,11.44,0,0,0,0,6.66c.65,1.72,1.88,2.12,3.39,1.06a5.11,5.11,0,0,0,1.2-1.12,23.18,23.18,0,0,0,3.6-7.29,23.49,23.49,0,0,0,.84-6.64c0-.81-.55-2.12-1.11-2.27a3.58,3.58,0,0,0-2.64.8c-2,1.55-2.27,3.68-1.15,6.42a3.59,3.59,0,0,1,.25,1.6,1,1,0,0,1-.22.61A3.6,3.6,0,0,1,529.8,175.15Zm.94,14.61a20.52,20.52,0,0,1-7.69.08c-5.63-1.19-8.25-5.72-7.21-11.55a17.56,17.56,0,0,1,4.95-9c.36-.37.86-.9.82-1.32-.25-3.42,2.09-5.11,4.49-6.59A26.2,26.2,0,0,1,538,157.83a42.08,42.08,0,0,1,5.77,1.33c4.19,1.62,6.34,5.65,5.89,10.47A23,23,0,0,1,530.74,189.76Z" fill="#5e0a72"/>
              <path d="M524.78,75.78a5.46,5.46,0,0,1-5.61-5.2c-.43-4.8,3.14-9.14,7.53-9.14a5.26,5.26,0,0,1,5.55,5.17C532.59,71.58,529.09,75.88,524.78,75.78Z" fill="#5e0a72"/>
              <path d="M497.58,114.23a40.77,40.77,0,0,1-4.41-.66c-2.34-.59-3.35-2.12-2.8-4.45,2.34-9.73,4.61-19.47,7.24-29.11a166.54,166.54,0,0,1,5.85-17.56,25.18,25.18,0,0,1,9.46-12.12c4.08-2.68,8.54-3.94,13.4-2.75a12.06,12.06,0,0,1,7.24,5,2.44,2.44,0,0,1,.33,2.18,2.31,2.31,0,0,1-2.13.43,11.71,11.71,0,0,0-14.18,5.7,63.44,63.44,0,0,0-5.46,12.38c-3.46,11.65-6.49,23.41-9.66,35.14a10,10,0,0,0-.19,2.79c0,2.13-.39,2.64-2.52,2.84-.72.06-1.42.08-2.14.13A.61.61,0,0,0,497.58,114.23Z" fill="#5e0a72"/>
              <path d="M517.9,109.71a39.59,39.59,0,0,1-4.23-.65c-2.39-.61-3.43-1.91-3.09-4.33.47-3.1,1.22-6.15,2-9.2.89-3.58,2-7.11,2.85-10.7a12,12,0,0,0,.22-3.45A2.19,2.19,0,0,1,517.38,79,8.79,8.79,0,0,1,527,82.78c1,1.88.52,3.8,0,5.64-1.19,4.25-2.63,8.43-3.78,12.69a21.11,21.11,0,0,0-.62,5.38c0,2.25-.3,2.75-2.52,3-.72.07-1.44.08-2.14.12A.35.35,0,0,0,517.9,109.71Z" fill="#5e0a72"/>
              <path d="M479.46,124.29a34.66,34.66,0,0,1-4.66-1c-2.16-.72-2.93-2-2.48-4.24.93-4.75,2-9.5,3.17-14.2,2.2-8.79,4.51-17.54,6.74-26.31a9.88,9.88,0,0,0,.26-3,2.24,2.24,0,0,1,2-2.56c3-.73,8.2,1.47,9.45,4.2a6,6,0,0,1,.22,3.68c-1.76,6.91-3.71,13.75-5.52,20.64q-2.12,7.93-4,15.9a14.82,14.82,0,0,0-.3,3.77c0,1.87-.43,2.48-2.33,2.69-.83.09-1.66.12-2.49.17Z" fill="#5e0a72"/>
              <path d="M456.14,115.58c-3.07.62-6.13.9-9.14-.25a9,9,0,0,1-6.13-9.59,16.34,16.34,0,0,1,4.91-10.43,2.72,2.72,0,0,0,1-2.38c-.12-2,1.27-3.36,2.7-4.53a20.11,20.11,0,0,1,9.32-4.07c1.41-.28,2.85-.37,4.28-.54a.37.37,0,0,1,0,.11c.33,0,.66,0,1,0,7.84.39,11.82,5.34,10.59,13.11C473.25,106,465.68,113.6,456.14,115.58Zm5-15.36a17.19,17.19,0,0,0,1-8c-.21-1.5-1.09-2-2.46-1.44A5.06,5.06,0,0,0,458,92a5,5,0,0,0-.59,6.13,2.32,2.32,0,0,1,0,2.07,3.29,3.29,0,0,1-2.17.73,9.58,9.58,0,0,1-2.34-.59,40.25,40.25,0,0,0,.07,5.62c.14,1,.93,2.39,1.65,2.51a3.66,3.66,0,0,0,2.92-1.27,19.64,19.64,0,0,0,2.89-5C460.65,101.55,460.9,100.89,461.12,100.22Z" fill="#5e0a72"/>
            </g>
          </g>
          <g>
            <path d="M298.92,89l-63.5-47.86a47.9,47.9,0,0,0-28.85-9.66H136.21A63.73,63.73,0,0,0,104.44,40L31.92,81.71A63.67,63.67,0,0,0,2.93,156L28,235.85a63.66,63.66,0,0,0,26,34.31l46.73,30.42A63.66,63.66,0,0,0,149,309.45L261.88,285A63.65,63.65,0,0,0,300,260.06l15.19-21a63.72,63.72,0,0,0,11.64-44.8l-9.21-73A48,48,0,0,0,298.92,89Z" fill="#f9faeb"/>
            <g>
              <path d="M201.17,154.94a28.64,28.64,0,0,0,8.89-12.33c4.31-11.51,5.1-23.35,1.21-35.15-2-6-5-11.32-10.59-14.35A7.48,7.48,0,0,0,196,91.5a7.87,7.87,0,0,0-2.77.5h-.35a22.11,22.11,0,0,0-12.66,11.5c-7.35,15.21-8.22,30.59-.36,45.93C184.23,158,194.19,160.54,201.17,154.94Zm-1.32-30.54A38.4,38.4,0,0,1,197,137.27c-.17.28-.35.56-.53.83-.78,1.18-2.36,2.9-3.19,2.71a5.08,5.08,0,0,1-3.06-3.22,38.39,38.39,0,0,1,2.28-25.93,7.1,7.1,0,0,1,2.25-2.29,4.68,4.68,0,0,1,1.58-.06,7,7,0,0,1,2.19,2.7c.47,1.62.83,3.27,1.16,4.93A43.6,43.6,0,0,1,199.85,124.4Zm.9-1.74v0Z" fill="#e73088"/>
              <path d="M138.3,170.16a15.63,15.63,0,0,0,17.45-2.63,40.26,40.26,0,0,0,11.17-17.64c4.26-13.44,4.63-26.89-.08-40.21-2.79-7.91-7-14.83-15.69-17.57a7.91,7.91,0,0,0-6.32.1c-9,3.23-14.28,10.1-17.38,18.71a75.45,75.45,0,0,0-4.18,17c-1.16,10.35-.52,20.68,4.2,30.28C129.91,163.13,132.88,167.68,138.3,170.16Zm7.38-57.78.07-.12a7.58,7.58,0,0,1,1.64-1.69c1-.39,2.07.19,3.21,1.61,2.58,3.2,3,7.12,3.54,11,.26,1.76.22,3.57.3,5.15-.23,3.12-.25,6.07-.69,9a27.4,27.4,0,0,1-6.24,13.62c-1.15,1.38-2.62,1.65-3.67.78a15.81,15.81,0,0,1-2-4.48,44.81,44.81,0,0,1-1.51-13.29c.18-2.62.48-5.26.67-7.88.06-.35.11-.69.17-1a1.62,1.62,0,0,0,.09-.47,37.12,37.12,0,0,1,3.15-10C144.85,113.78,145.29,113.09,145.68,112.38Z" fill="#e73088"/>
              <path d="M275.73,139.56c-1.37.37-2,.85-1.89,2.46.32,9.26.45,18.51.69,27.77.28,10.64.61,21.28.93,31.93.14,4.76.31,9.52.47,14.36,4.47,0,8.6-.07,12.74,0,1.73,0,2.18-.6,2.24-2.26q1-28.51,2.15-57c.06-1.73.31-3.46.47-5.2v-17.1C287.6,136.21,281.68,137.93,275.73,139.56Z" fill="#2e7c78"/>
              <path d="M212.22,160.24c-.13,4.53-.11,9.07-.09,13.61.06,9.26.24,18.52.22,27.78,0,10.3-.21,20.6-.3,30.9,0,3.95,0,7.9,0,11.87h18.3c-.11-1.62-.3-3.07-.28-4.52.14-8.68.4-17.36.48-26,.05-5-.08-5.07,4.94-5.82,3-.45,6-.81,9.15-1.23,0,.78.09,1.18.08,1.58,0,11.15,0,22.3-.1,33.46,0,2,.64,2.73,2.65,2.7,5.77-.08,11.54,0,17.48,0,.85-34.05.49-67.78.21-101.88L244.84,149v33.44l-14,2.71v-3c0-8.63.07-17.26.05-25.89a21,21,0,0,0-.52-3.23c-5.92,1.89-11.41,3.61-16.85,5.45A2.39,2.39,0,0,0,212.22,160.24Z" fill="#2e7c78"/>
              <path d="M208.17,244.45c-3.73-27.5-5.88-54.87-9.93-82.38-8.53,2.64-16.52,5.08-24.48,7.63a2.87,2.87,0,0,0-1.43,1.74c-.56,1.85-.86,3.78-1.34,5.66q-3.62,14.22-7.27,28.42Q159,224,154.16,242.36c-.15.58-.21,1.18-.35,1.95h16.92c1.21-5,2.36-10,3.67-14.91.22-.86,1-2.14,1.69-2.21,3.67-.41,7.39-.52,11.22-.74.56,5.43,1,10.61,1.68,15.76.1.8,1,2.12,1.53,2.14C196.27,244.51,202,244.45,208.17,244.45Zm-28.7-35c.37-5.85,2.49-11,4.53-16.22.5,5,1,10.07,1.53,15.28Z" fill="#2e7c78"/>
              <path d="M147.49,177.17c-4.89,1.46-9.77,3-14.64,4.49-1.45.46-1.9,1.45-1.85,3,.14,5.19.15,10.39.12,15.59,0,.59-.46,1.61-.85,1.69-3.71.69-7.45,1.22-11.56,1.85V185.52c-5.26,1.64-9.86,3.22-14.54,4.46-2.28.61-2.89,1.71-2.87,4,.13,12.62.11,25.24.14,37.86,0,4,0,8.08,0,12.25,5.66,0,10.86,0,16-.06a2,2,0,0,0,1.35-1.4c.1-3.41,0-6.82,0-10.23,0-3.57,0-7.13,0-10.82l12.32-1.63v24h19.09v-2.84c-.05-5.94-.14-11.87-.13-17.81q0-22,.15-44C150.27,177.18,149.28,176.63,147.49,177.17Z" fill="#2e7c78"/>
              <path d="M281.82,221.55c-6.11.07-11.39,5.76-11.35,12.24A10.93,10.93,0,0,0,281.72,245c6.18-.09,11.34-5.61,11.25-12S288,221.49,281.82,221.55Z" fill="#2e7c78"/>
              <path d="M112.47,176.62c.47-5.83,1.12-11.65,1.81-17.46,1.21-10.23,2.54-20.45,3.77-30.69q2-16.56,3.81-33.15c.06-.52-.8-1.64-1.26-1.66-5.12-.13-10.25-.18-15.37,0a3,3,0,0,0-2.17,1.88c-.83,6-1.46,12.08-2.1,18.13q-1.54,14.47-3,28.95l-.42,0q-4.19-24.54-8.39-49.09a57.76,57.76,0,0,0-7.15.09,3.74,3.74,0,0,0-2.53,2c-1.27,3.59-2.26,7.29-3.29,11-3,10.78-6,21.58-9.06,32.36-.89,3.16-2,6.26-3,9.39l-.48-.12V94H44.74V201.14a.61.61,0,0,0,.59.64.57.57,0,0,0,.18,0h0c7.16-2.31,13.86-4.53,20.6-6.63a4.83,4.83,0,0,0,3.52-3.6q5.1-17.45,10.31-34.84c.24-.81.52-1.6.79-2.4a2,2,0,0,1,.72,1.34c1.58,10.21,3.2,20.41,4.71,30.63.27,1.85.73,2.29,2.65,1.65,6.38-2.14,12.83-4.12,19.29-6C110.83,181.06,112.24,179.55,112.47,176.62Z" fill="#e73088"/>
            </g>
          </g>
          <g>
            <path d="M360,279.84l27.06-10.06a16.62,16.62,0,0,0,10.78-12.2l2.3-11.2c1.59-7.77-3-15.83-11-19.58l-17.58-8.3c-7.19-3.39-15.84-2.36-21.43,2.54l-23.29,20.43c-8.62,7.55-7.85,20.85,2,27.57l12.47,8.47A20.57,20.57,0,0,0,360,279.84Z" fill="#f9faeb"/>
            <path d="M378.45,238.65a3.68,3.68,0,1,0-5.19-5.22c-.56.5-1.1,1-1.65,1.52a3.59,3.59,0,0,0-4.17.66c-1.63,1.77-3.21,3.58-4.78,5.4-2-2.19-4-4.36-6-6.46a3.75,3.75,0,0,0-4.58-.5,3.68,3.68,0,0,0-4.6,5.69c2.94,2.89,5.85,5.82,8.76,8.75-2,2.29-4.05,4.55-6.22,6.71a3.38,3.38,0,0,0-.56,4.29l-.05.07h0l-.58.74c-1.11,1.44-.38,3.77.93,4.76s3.67,1.17,4.84-.28q2.54-3.15,5-6.35c1-1.2,2-2.37,3-3.55,2.88,2.91,5.75,5.81,8.65,8.69a3.67,3.67,0,0,0,5.77-4.46,3.56,3.56,0,0,0-.54-4.41,91.12,91.12,0,0,1-7.54-6.88C372,244.66,375.19,241.63,378.45,238.65Z" fill="#6ab4be"/>
          </g>
        </g>
        <path d="M705.18,223.66c-12.45,4.91-94.22,39.39-103.7,43.19,5.46-4.87,11.87-12.47,17.06-17.74,7.27-7.4-.46-4-2.31-3-17.48,9.77-34,21.3-50.82,32.11q-6.15,3.93-12.32,7.81c4-5.48,7.59-9.69,11.56-15.22,4.77-6.63-1-3.63-2.6-2.6-11.63,7.45-22.95,15.28-33.21,24.49.93-3,2.1-5.84,3.26-8.75,2.86-7.14-1.26-3.76-3-2.31a63.3,63.3,0,0,0-14.91,17.6,22.89,22.89,0,0,0-2,19,13.58,13.58,0,0,0,1.39,3.31,11.46,11.46,0,0,0,3.88,3.89c5.94,3.56,13.08.72,18.61-2.23q23.25-12.4,46.51-24.83,19.88-10.64,39.67-21.38,18.54-10.11,37-20.43,19.31-10.83,38.46-22c3.36-2,6.75-3.86,10.08-5.87,4-2.38,8.38-5.39,8.2-6.72C715.8,220.86,712,220.94,705.18,223.66Z" fill="#79e873"/>
        <path d="M390.51,2.34c-20.44,8.4-40.93,16.71-61.37,25.13q-35.79,14.74-71.35,30L247.1,62.11c-3.28,1.42-6.65,2.71-9.53,4.86a17.19,17.19,0,0,0-7.23,12.78c-.24,4.29,1.7,8.8,5.5,11,5,2.9,10.92.94,15.63-1.58,13-6.91,139.44-79.25,142.31-80.92,6.18-3.61,7.46-5.27,7-7C400.44.07,399-1.26,390.51,2.34Z" fill="#74b3c1"/>
        <path d="M170.77,252.63c-16.94,7-33.91,13.84-50.84,20.81q-29.64,12.22-59.11,24.88L52,302.14a38.61,38.61,0,0,0-7.89,4,14.22,14.22,0,0,0-6,10.59,9.89,9.89,0,0,0,4.55,9.11c4.15,2.41,9,.78,13-1.3,10.74-5.73,115.51-65.65,117.88-67,5.12-3,6.18-4.36,5.79-5.81C179,250.75,177.77,249.65,170.77,252.63Z" fill="#e73088"/>
      </g>
    </g>
  </g>
</svg>
